<!DOCTYPE svg PUBLIC "-//W3C//DTD SVG 20010904//EN" "http://www.w3.org/TR/2001/REC-SVG-20010904/DTD/svg10.dtd">
<svg version="1.0" xmlns="http://www.w3.org/2000/svg" width="331px" height="436px" viewBox="0 0 3310 4360" preserveAspectRatio="xMidYMid meet">
<g id="layer101" fill="#000000" stroke="none">
</g>
<g id="layer102" fill="#d12d11" stroke="none">
<path d="M1638 4273 c-8 -10 -369 -549 -802 -1199 l-786 -1180 0 -472 0 -472 1605 0 1605 0 0 472 0 472 -642 961 c-747 1117 -948 1417 -957 1428 -4 4 -14 -1 -23 -10z"/>
</g>
<g id="layer103" fill="#2b62a3" stroke="none">
<path d="M1638 4273 c-8 -10 -369 -549 -802 -1199 l-786 -1180 0 -472 0 -472 1605 0 1605 0 0 472 0 472 -642 961 c-747 1117 -948 1417 -957 1428 -4 4 -14 -1 -23 -10z m366 -818 c146 -220 271 -407 276 -415 52 -73 710 -1070 710 -1074 0 -3 -286 -6 -635 -6 l-635 0 0 957 c0 561 4 953 9 948 5 -6 129 -190 275 -410z"/>
</g>
<g id="layer104" fill="#b88948" stroke="none">
<path d="M1645 4152 c-6 -4 -153 -221 -326 -482 -174 -261 -515 -774 -758 -1138 -242 -365 -439 -668 -435 -673 7 -11 3051 -12 3058 -1 4 6 -1495 2265 -1523 2294 -3 4 -11 4 -16 0z m-55 -1232 l0 -960 -640 0 -639 0 131 198 c72 108 167 251 212 317 44 66 108 163 143 215 34 52 85 129 113 170 28 41 70 104 94 140 24 36 73 110 109 165 37 55 158 238 269 407 112 169 204 307 206 307 1 1 2 -431 2 -959z m414 535 c146 -220 271 -407 276 -415 52 -73 710 -1070 710 -1074 0 -3 -286 -6 -635 -6 l-635 0 0 957 c0 561 4 953 9 948 5 -6 129 -190 275 -410z"/>
<path d="M1470 651 c0 -5 14 -49 30 -98 17 -48 30 -93 30 -100 0 -7 -38 -41 -85 -75 -47 -34 -85 -65 -85 -70 0 -4 50 -9 112 -10 l112 -3 36 -110 37 -110 37 112 38 113 108 0 c60 0 111 3 114 8 2 4 -36 36 -85 70 -49 35 -89 67 -89 70 0 4 15 52 34 107 19 55 33 101 31 104 -2 2 -46 -26 -96 -62 l-93 -66 -50 36 c-28 20 -60 44 -71 54 -29 24 -65 41 -65 30z"/>
</g>
<g id="layer105" fill="#6b8eb8" stroke="none">
<path d="M1638 4273 c-8 -10 -18 -25 -22 -33 -4 -8 2 -3 14 13 12 15 27 24 32 21 7 -4 8 -2 4 4 -9 15 -10 15 -28 -5z"/>
<path d="M1645 4152 c-6 -4 -153 -221 -326 -482 -174 -261 -515 -774 -758 -1138 -242 -365 -439 -668 -435 -673 7 -11 3051 -12 3058 -1 4 6 -1495 2265 -1523 2294 -3 4 -11 4 -16 0z m-55 -1232 l0 -960 -640 0 -639 0 131 198 c72 108 167 251 212 317 44 66 108 163 143 215 34 52 85 129 113 170 28 41 70 104 94 140 24 36 73 110 109 165 37 55 158 238 269 407 112 169 204 307 206 307 1 1 2 -431 2 -959z m423 523 c156 -236 442 -665 635 -955 l351 -528 -640 0 -639 0 0 955 c0 525 2 955 4 955 2 0 132 -192 289 -427z"/>
<path d="M1900 3915 c17 -25 33 -45 36 -45 3 0 -9 20 -26 45 -17 25 -33 45 -36 45 -3 0 9 -20 26 -45z"/>
<path d="M1336 3823 c-20 -32 -27 -46 -14 -31 26 30 62 88 55 88 -2 0 -21 -26 -41 -57z"/>
<path d="M1986 3788 c21 -36 85 -128 89 -128 3 0 -16 32 -41 70 -26 39 -49 70 -51 70 -2 0 -1 -6 3 -12z"/>
<path d="M904 3178 c-4 -7 -14 -24 -22 -38 -14 -24 -13 -24 3 -5 20 24 37 55 31 55 -3 0 -8 -6 -12 -12z"/>
<path d="M730 2915 c-17 -25 -29 -45 -26 -45 3 0 19 20 36 45 17 25 29 45 26 45 -3 0 -19 -20 -36 -45z"/>
<path d="M2896 2428 c20 -32 39 -58 41 -58 7 0 -29 58 -55 88 -13 15 -6 1 14 -30z"/>
<path d="M2960 2330 c12 -16 24 -30 26 -30 3 0 -4 14 -16 30 -12 17 -24 30 -26 30 -3 0 4 -13 16 -30z"/>
<path d="M3047 2199 c10 -17 24 -36 32 -42 8 -7 2 7 -14 31 -32 49 -45 57 -18 11z"/>
<path d="M90 1955 c-17 -25 -29 -45 -26 -45 3 0 19 20 36 45 17 25 29 45 26 45 -3 0 -19 -20 -36 -45z"/>
<path d="M55 1425 c0 -264 1 -371 2 -237 2 134 2 350 0 480 -1 130 -2 21 -2 -243z"/>
<path d="M120 1415 l0 -395 1535 0 1535 0 0 395 0 395 -1535 0 -1535 0 0 -395z m220 120 l0 -105 65 0 65 0 0 -30 0 -30 -65 0 -65 0 0 -60 0 -59 68 -3 c64 -3 67 -4 67 -28 l0 -25 -112 -3 -113 -3 0 226 0 225 45 0 45 0 0 -105z m432 85 c47 -36 58 -77 58 -213 0 -113 -2 -127 -23 -158 -30 -45 -60 -59 -130 -59 -51 0 -61 4 -93 33 -32 30 -37 39 -44 105 -15 137 3 247 48 289 34 31 146 34 184 3z m220 -72 l3 -93 40 0 c51 0 65 25 65 118 l0 67 44 0 44 0 -4 -77 c-7 -106 -11 -121 -34 -128 -26 -8 -25 -19 5 -49 19 -19 25 -35 25 -70 0 -102 -35 -126 -182 -126 l-93 0 3 225 3 225 39 0 39 0 3 -92z m420 -89 c-2 -129 0 -185 9 -195 7 -8 29 -14 55 -14 42 0 44 -1 44 -30 l0 -30 -151 0 -150 0 3 32 c3 30 5 31 43 31 22 0 45 4 51 8 8 6 10 63 7 184 -2 97 -1 180 2 185 3 6 25 10 48 10 l42 0 -3 -181z m181 134 l14 -48 70 -3 71 -3 12 51 12 50 45 0 c42 0 45 -2 40 -22 -4 -21 -101 -370 -113 -410 -4 -15 -17 -18 -63 -18 l-57 0 -23 78 c-20 66 -101 362 -101 370 0 1 18 2 40 2 38 0 40 -1 53 -47z m547 12 l0 -34 -67 -3 -68 -3 -3 -187 -2 -188 -45 0 -45 0 0 225 0 225 115 0 115 0 0 -35z m280 6 c0 -28 -3 -30 -45 -37 -25 -3 -59 -4 -74 -1 -34 7 -41 -4 -41 -68 0 -71 4 -75 76 -75 l64 0 0 -30 c0 -29 0 -29 -67 -32 l-68 -3 0 -55 0 -55 75 -5 c72 -5 75 -6 75 -30 l0 -25 -117 -3 -118 -3 0 226 0 225 120 0 120 0 0 -29z m419 -21 l13 -51 71 3 70 3 11 45 c11 44 12 45 54 48 48 4 49 2 28 -73 -8 -27 -34 -122 -59 -210 l-44 -160 -59 0 -59 0 -36 136 c-20 74 -47 169 -59 209 -21 68 -24 72 -37 54 -13 -18 -34 -21 -171 -24 -22 0 -22 -1 -6 -32 9 -18 47 -78 84 -133 71 -107 88 -144 82 -187 l-3 -28 -130 0 -129 0 0 30 0 30 85 0 c65 0 85 3 85 13 0 13 -84 155 -148 249 -14 22 -26 57 -28 83 l-4 45 188 0 188 0 13 -50z"/>
<path d="M649 1571 c-22 -18 -24 -27 -27 -126 -5 -134 2 -170 34 -191 36 -24 70 -6 83 43 25 89 6 283 -28 283 -5 0 -16 2 -24 5 -7 3 -25 -3 -38 -14z"/>
<path d="M1000 1320 c0 -70 0 -70 28 -70 44 0 72 26 72 66 0 43 -29 74 -70 74 l-30 0 0 -70z"/>
<path d="M1626 1472 c-3 -5 1 -31 9 -58 8 -27 19 -68 25 -91 6 -24 15 -43 20 -43 7 0 50 160 50 189 0 13 -96 16 -104 3z"/>
<path d="M2870 1472 c0 -19 43 -178 50 -185 4 -5 17 27 28 70 33 125 35 118 -25 121 -29 2 -53 -1 -53 -6z"/>
</g>
<g id="layer106" fill="#abacb6" stroke="none">
<path d="M130 1415 l0 -395 1528 2 1527 3 0 390 0 390 -1527 3 -1528 2 0 -395z m630 217 c59 -29 75 -75 75 -222 0 -151 -11 -181 -82 -212 -81 -36 -169 -11 -202 58 -17 34 -26 170 -17 248 8 61 38 114 76 133 36 18 109 16 150 -5z m-420 -92 l0 -100 65 0 65 0 0 -35 0 -34 -62 -3 -63 -3 0 -55 0 -55 68 -3 c67 -3 67 -3 67 -32 0 -38 -19 -43 -137 -38 l-88 3 -3 228 -2 227 45 0 45 0 0 -100z m660 5 l0 -95 28 0 c46 0 61 26 64 110 l3 75 49 3 49 3 -5 -92 c-4 -85 -6 -93 -31 -114 l-27 -21 25 -24 c21 -19 25 -33 25 -76 0 -64 -14 -98 -47 -113 -13 -6 -71 -11 -128 -11 l-105 0 0 225 0 225 50 0 50 0 0 -95z m420 -95 l0 -190 50 0 50 0 0 -34 0 -33 -82 -5 c-46 -3 -112 -5 -148 -4 l-65 1 -3 38 -3 37 50 0 51 0 0 190 0 190 50 0 50 0 0 -190z m179 137 l15 -48 65 3 65 3 14 48 13 47 45 0 c49 0 52 -7 34 -70 -6 -19 -31 -109 -56 -200 -25 -91 -48 -168 -53 -173 -12 -12 -110 -15 -119 -3 -9 11 -107 355 -118 414 l-7 33 44 -3 c43 -3 44 -4 58 -51z m541 13 l0 -40 -70 0 -70 0 -2 -187 -3 -188 -35 0 c-63 -1 -60 -12 -60 231 l0 224 120 0 120 0 0 -40z m280 5 l0 -35 -75 0 -75 0 0 -65 0 -64 68 -3 67 -3 3 -32 3 -32 -68 -3 -68 -3 0 -55 0 -55 73 -3 73 -3 -3 -31 c-4 -38 -10 -39 -150 -31 l-98 6 0 224 0 223 125 0 125 0 0 -35z m423 -12 l14 -48 64 0 63 0 16 45 c15 44 16 45 64 48 42 3 47 1 42 -15 -12 -39 -75 -263 -96 -345 l-23 -88 -64 0 c-34 0 -63 2 -63 5 0 7 -77 289 -96 354 -13 42 -19 50 -26 37 -7 -13 -26 -16 -98 -16 -50 0 -90 -3 -90 -7 1 -9 38 -71 123 -203 45 -71 57 -98 57 -129 0 -37 -2 -41 -32 -46 -18 -3 -78 -5 -133 -3 l-100 3 -3 38 -3 37 85 0 c47 0 86 3 86 7 0 4 -11 23 -23 42 -23 34 -52 81 -125 197 -23 36 -32 63 -32 92 l0 42 190 0 189 0 14 -47z"/>
</g>
<g id="layer107" fill="#e09984" stroke="none">
<path d="M891 3019 c-414 -622 -755 -1137 -758 -1145 -4 -12 213 -14 1521 -14 839 0 1526 2 1526 5 0 12 -1521 2285 -1529 2285 -4 0 -347 -509 -760 -1131z m702 -102 l2 -957 -644 0 -643 0 17 28 c126 194 1259 1891 1262 1889 2 -2 4 -434 6 -960z m420 526 c156 -236 442 -665 635 -955 l351 -528 -640 0 -639 0 0 955 c0 525 2 955 4 955 2 0 132 -192 289 -427z"/>
</g>
<g id="layer108" fill="#a3bedb" stroke="none">
<path d="M891 3019 c-414 -622 -755 -1137 -758 -1145 -4 -12 213 -14 1521 -14 839 0 1526 2 1526 5 0 12 -1521 2285 -1529 2285 -4 0 -347 -509 -760 -1131z m1039 564 c112 -170 254 -382 314 -473 155 -232 544 -817 659 -991 53 -80 97 -151 97 -157 0 -9 -158 -12 -642 -10 l-643 3 -3 968 c-1 532 2 967 6 967 5 0 100 -138 212 -307z m-337 -666 l2 -957 -644 0 -643 0 17 28 c126 194 1259 1891 1262 1889 2 -2 4 -434 6 -960z"/>
<path d="M130 1415 l0 -395 1528 2 1527 3 0 390 0 390 -1527 3 -1528 2 0 -395z m630 217 c59 -29 75 -75 75 -222 0 -151 -11 -181 -82 -212 -81 -36 -169 -11 -202 58 -17 34 -26 170 -17 248 8 61 38 114 76 133 36 18 109 16 150 -5z m841 -50 l12 -43 65 3 66 3 14 48 13 47 45 0 c49 0 52 -7 34 -70 -6 -19 -31 -109 -56 -200 -25 -91 -48 -168 -53 -173 -12 -12 -110 -15 -120 -3 -4 6 -13 29 -18 51 -20 76 -101 360 -108 377 -6 14 1 17 37 20 49 3 54 -1 69 -60z m-1261 -42 l0 -100 65 0 65 0 0 -35 0 -34 -62 -3 -63 -3 0 -55 0 -55 68 -3 c67 -3 67 -3 67 -32 0 -38 -19 -43 -137 -38 l-88 3 -3 228 -2 227 45 0 45 0 0 -100z m660 5 l0 -95 28 0 c46 0 61 26 64 110 l3 75 50 3 50 3 -6 -93 c-6 -84 -9 -94 -33 -113 l-26 -21 25 -24 c21 -19 25 -33 25 -76 0 -64 -14 -98 -47 -113 -13 -6 -71 -11 -128 -11 l-105 0 0 225 0 225 50 0 50 0 0 -95z m420 -95 l0 -190 50 0 50 0 0 -34 0 -33 -82 -5 c-46 -3 -112 -5 -148 -4 l-65 1 -3 38 -3 37 50 0 51 0 0 190 0 190 50 0 50 0 0 -190z m720 150 l0 -40 -70 0 -70 0 -2 -187 -3 -188 -35 0 c-63 -1 -60 -12 -60 231 l0 224 120 0 120 0 0 -40z m280 5 l0 -35 -75 0 -75 0 0 -65 0 -64 68 -3 67 -3 3 -32 3 -32 -68 -3 -68 -3 0 -55 0 -55 73 -3 73 -3 -3 -31 c-4 -38 -10 -39 -150 -31 l-98 6 0 224 0 223 125 0 125 0 0 -35z m423 -12 l14 -48 64 0 63 0 16 45 c15 44 16 45 64 48 42 3 47 1 42 -15 -12 -39 -75 -263 -96 -345 l-23 -88 -64 0 c-34 0 -63 2 -63 5 0 7 -77 289 -96 354 -13 42 -19 50 -26 37 -7 -13 -26 -16 -98 -16 -50 0 -90 -3 -90 -7 1 -9 38 -71 123 -203 44 -70 57 -98 57 -129 0 -33 -4 -40 -25 -45 -27 -7 -222 -7 -240 0 -6 3 -9 19 -7 39 l4 35 84 0 c46 0 84 3 84 7 0 4 -11 23 -23 42 -23 34 -52 81 -125 197 -23 36 -32 63 -32 92 l0 42 190 0 189 0 14 -47z"/>
<path d="M644 1559 c-16 -18 -19 -37 -19 -144 0 -108 2 -126 19 -144 26 -29 66 -24 83 9 19 38 17 249 -3 278 -19 28 -55 28 -80 1z"/>
<path d="M1630 1465 c0 -27 45 -174 51 -168 4 4 15 37 24 73 9 36 18 73 21 83 5 15 -2 17 -45 17 -28 0 -51 -2 -51 -5z"/>
<path d="M1007 1384 c-4 -4 -7 -34 -7 -66 l0 -58 33 0 c18 0 38 5 45 12 16 16 15 83 -1 96 -17 15 -61 25 -70 16z"/>
<path d="M2884 1474 c-11 -5 20 -161 35 -177 5 -5 18 31 30 79 12 47 20 88 18 91 -7 7 -71 13 -83 7z"/>
</g>
<g id="layer109" fill="#f7fbfb" stroke="none">
<path d="M1453 3853 c-105 -159 -211 -317 -236 -353 -24 -36 -227 -342 -452 -680 -224 -338 -457 -688 -517 -777 -59 -90 -108 -167 -108 -173 0 -7 504 -10 1516 -10 1300 0 1515 2 1511 14 -10 25 -1509 2266 -1516 2266 -4 0 -93 -129 -198 -287z m145 -930 l-3 -968 -639 -3 c-352 -1 -643 1 -647 5 -5 5 166 269 379 589 213 319 501 752 641 962 139 210 257 382 262 382 5 0 8 -405 7 -967z m332 660 c112 -170 254 -382 314 -473 155 -232 544 -817 659 -991 53 -80 97 -151 97 -157 0 -9 -158 -12 -642 -10 l-643 3 -3 968 c-1 532 2 967 6 967 5 0 100 -138 212 -307z"/>
<path d="M132 1418 l3 -383 1523 -3 1522 -2 0 385 0 385 -1525 0 -1525 0 2 -382z m216 125 l3 -103 65 0 65 0 -3 -37 -3 -38 -62 -3 -63 -3 0 -49 0 -49 68 -3 67 -3 0 -35 0 -35 -122 -3 -123 -3 0 229 c0 126 3 232 7 236 4 4 28 6 53 4 l45 -3 3 -102z m442 79 c39 -39 50 -88 50 -222 0 -93 -4 -122 -19 -150 -27 -51 -71 -73 -142 -73 -72 1 -120 32 -141 90 -20 58 -17 237 5 295 28 72 55 88 144 88 68 0 77 -2 103 -28z m210 -67 l0 -95 29 0 c41 0 53 20 60 107 l6 78 52 3 52 3 -5 -73 c-8 -112 -13 -137 -34 -150 -19 -12 -19 -13 2 -35 18 -19 22 -35 21 -88 -1 -105 -39 -129 -197 -123 l-90 3 2 210 c1 116 2 220 2 233 0 20 5 22 50 22 l50 0 0 -95z m424 78 c4 -9 6 -93 5 -185 -1 -93 1 -172 5 -175 3 -4 25 -7 49 -7 l42 -1 3 -43 3 -43 -158 3 -158 3 -3 38 c-3 36 -3 37 32 37 68 0 66 -7 66 194 0 101 3 186 7 189 3 4 28 7 54 7 35 0 49 -4 53 -17z m164 5 c6 -7 14 -29 19 -48 l9 -35 67 -3 67 -3 0 31 c0 55 15 70 70 70 39 0 50 -3 50 -16 0 -17 -92 -354 -113 -414 -13 -35 -13 -35 -79 -38 l-65 -3 -12 48 c-7 26 -34 128 -61 225 -28 97 -50 181 -50 187 0 15 85 14 98 -1z m560 -23 c3 -45 -7 -53 -73 -57 l-60 -3 -5 -185 -5 -185 -52 -3 -53 -3 0 236 0 236 123 -3 122 -3 3 -30z m280 -4 c4 -42 -6 -49 -78 -49 -32 1 -62 -2 -68 -6 -5 -3 -9 -30 -8 -58 l1 -53 68 -3 67 -3 0 -39 0 -40 -70 0 -70 0 0 -37 c0 -21 4 -43 8 -50 4 -7 37 -13 77 -15 l70 -3 0 -35 0 -35 -127 -3 -128 -3 0 236 0 236 128 -3 127 -3 3 -34z m412 17 c5 -13 11 -36 15 -51 5 -27 7 -28 67 -25 61 3 62 3 69 35 3 18 12 40 19 48 14 17 100 21 100 4 0 -6 -16 -72 -36 -147 -20 -75 -46 -175 -58 -222 l-22 -85 -66 -3 c-78 -3 -69 -17 -123 193 -20 77 -40 151 -44 164 -7 24 -11 24 -99 25 -50 0 -94 -3 -97 -6 -7 -6 27 -64 112 -192 51 -77 69 -124 61 -163 -3 -16 -15 -18 -143 -18 l-140 0 -3 38 -3 37 86 0 c67 0 86 3 82 13 -3 7 -44 75 -91 152 -67 108 -86 147 -86 175 0 20 3 40 7 43 3 4 91 7 195 7 186 0 189 0 198 -22z"/>
<path d="M649 1554 c-22 -27 -26 -237 -5 -269 19 -29 57 -33 77 -9 19 23 24 231 7 264 -16 31 -59 38 -79 14z"/>
<path d="M1004 1356 c-3 -13 -4 -38 -2 -57 2 -28 7 -35 30 -37 18 -2 31 4 42 20 21 30 20 54 -4 78 -27 27 -58 26 -66 -4z"/>
<path d="M1640 1453 c1 -35 38 -148 44 -133 6 18 36 135 36 144 0 3 -18 6 -40 6 -32 0 -40 -4 -40 -17z"/>
<path d="M2884 1453 c2 -10 10 -44 17 -76 7 -32 16 -60 20 -62 6 -4 39 120 39 146 0 5 -18 9 -41 9 -34 0 -40 -3 -35 -17z"/>
</g>


</svg>